HIERARCHY
ROOT Hips
{
 OFFSET 0.000000 0.000000 0.000000
 CHANNELS 6 Xposition Yposition Zposition Yrotation Xrotation Zrotation
 JOINT Chest
 {
  OFFSET 0.000000 9.585900 0.002600
  CHANNELS 3 Yrotation Xrotation Zrotation
  JOINT Chest2
  {
   OFFSET 0.000000 9.601200 -0.005300
   CHANNELS 3 Yrotation Xrotation Zrotation
   JOINT Chest3
   {
    OFFSET 0.000000 9.561800 0.000000
    CHANNELS 3 Yrotation Xrotation Zrotation
    JOINT Chest4
    {
     OFFSET 0.000000 9.552100 0.000000
     CHANNELS 3 Yrotation Xrotation Zrotation
     JOINT Neck
     {
      OFFSET 0.000000 14.453000 0.000000
      CHANNELS 3 Yrotation Xrotation Zrotation
      JOINT Head
      {
       OFFSET 0.000000 8.936500 -0.011300
       CHANNELS 3 Yrotation Xrotation Zrotation
       End Site
       {
        OFFSET 0.000000 17.073600 -0.006000
       }
      }
     }
     JOINT RightCollar
     {
      OFFSET -2.921100 9.558500 0.000000
      CHANNELS 3 Yrotation Xrotation Zrotation
      JOINT RightShoulder
      {
       OFFSET -13.519700 0.000000 0.000000
       CHANNELS 3 Yrotation Xrotation Zrotation
       JOINT RightElbow
       {
        OFFSET 0.000000 -29.696600 0.000000
        CHANNELS 3 Yrotation Xrotation Zrotation
        JOINT RightWrist
        {
         OFFSET 0.000000 -24.004700 0.000000
         CHANNELS 3 Yrotation Xrotation Zrotation
         End Site
         {
          OFFSET 0.000000 -17.728500 0.000000
         }
        }
       }
      }
     }
     JOINT LeftCollar
     {
      OFFSET 2.921100 9.558500 0.000000
      CHANNELS 3 Yrotation Xrotation Zrotation
      JOINT LeftShoulder
      {
       OFFSET 13.519700 0.000000 0.000000
       CHANNELS 3 Yrotation Xrotation Zrotation
       JOINT LeftElbow
       {
        OFFSET 0.000000 -29.696600 0.000000
        CHANNELS 3 Yrotation Xrotation Zrotation
        JOINT LeftWrist
        {
         OFFSET 0.000000 -24.004700 0.000000
         CHANNELS 3 Yrotation Xrotation Zrotation
         End Site
         {
          OFFSET 0.000000 -17.728500 0.000000
         }
        }
       }
      }
     }
    }
   }
  }
 }
 JOINT RightHip
 {
  OFFSET -7.771700 -0.012900 -0.001300
  CHANNELS 3 Yrotation Xrotation Zrotation
  JOINT RightKnee
  {
   OFFSET 0.000000 -40.869800 0.001200
   CHANNELS 3 Yrotation Xrotation Zrotation
   JOINT RightAnkle
   {
    OFFSET 0.000000 -39.717900 0.002100
    CHANNELS 3 Yrotation Xrotation Zrotation
    JOINT RightToe
    {
     OFFSET 0.000000 -4.965400 11.033500
     CHANNELS 3 Yrotation Xrotation Zrotation
     End Site
     {
      OFFSET 0.000000 -1.423100 5.872300
     }
    }
   }
  }
 }
 JOINT LeftHip
 {
  OFFSET 7.771700 -0.012900 -0.001300
  CHANNELS 3 Yrotation Xrotation Zrotation
  JOINT LeftKnee
  {
   OFFSET 0.000000 -40.869800 0.001200
   CHANNELS 3 Yrotation Xrotation Zrotation
   JOINT LeftAnkle
   {
    OFFSET 0.000000 -39.717900 0.002100
    CHANNELS 3 Yrotation Xrotation Zrotation
    JOINT LeftToe
    {
     OFFSET 0.000000 -4.965400 11.033500
     CHANNELS 3 Yrotation Xrotation Zrotation
     End Site
     {
      OFFSET 0.000000 -1.423100 5.872300
     }
    }
   }
  }
 }
}
MOTION
Frames: 9
Frame Time: 0.008333
-257.297006 60.540870 -79.366226 155.064065 -28.617422 3.319815 4.229207 17.401211 1.325535 0.442403 1.906859 0.097001 0.706638 3.177807 0.170117 3.603755 15.206245 1.203609 4.905203 17.455902 -0.722446 5.384620 -7.266583 -1.893356 4.137953 2.866248 -2.417954 9.023459 -12.838354 -12.654896 28.268307 -65.207182 -12.499336 1.113158 -8.857040 -34.686649 -7.832113 0.615774 -5.200681 9.131530 -5.300439 5.588186 -29.216816 -72.540537 13.451837 -2.637873 -0.077906 15.230897 1.502872 -40.750186 5.203743 -25.608153 67.652510 -22.129928 0.601666 -2.868285 -2.902841 0.053832 -0.147288 0.016559 13.645844 -40.331587 2.222629 24.718298 61.650149 24.662536 -15.356235 -14.554492 0.740720 -0.012978 0.355726 0.005127
-257.297215 60.541842 -79.366687 155.063718 -28.633224 3.319803 4.239672 17.409481 1.327414 0.441252 1.907008 0.104728 0.720169 3.184720 0.168929 3.603586 15.213508 1.205528 4.884211 17.435718 -0.721681 5.361716 -7.385247 -1.893549 4.127492 2.810710 -2.422304 9.014649 -12.869615 -12.633919 28.141454 -65.109333 -12.402242 1.100489 -8.864725 -34.651231 -7.849103 0.586091 -5.183448 9.081852 -5.345800 5.574736 -29.115406 -72.477619 13.378259 -2.630786 -0.093859 15.236903 1.496538 -40.733215 5.207634 -25.614033 67.653429 -22.133896 0.603416 -2.873442 -2.908865 0.057168 -0.147571 0.019300 13.652388 -40.316818 2.227243 24.769486 61.641682 24.713633 -15.399769 -14.579717 0.728320 -0.026908 0.309674 0.009907
-257.292384 60.545701 -79.370785 155.071930 -28.683632 3.304424 4.243240 17.449216 1.349892 0.437778 1.903727 0.111438 0.717166 3.197275 0.160171 3.619080 15.225269 1.217652 4.864002 17.367597 -0.727104 5.333125 -7.472589 -1.892913 4.099011 2.801815 -2.496907 9.025466 -12.967300 -12.555387 27.767771 -65.024551 -12.050773 1.101157 -8.831144 -34.649912 -7.858064 0.569132 -5.158885 9.054099 -5.366762 5.543266 -28.825560 -72.425493 13.085741 -2.611114 -0.127927 15.238670 1.457173 -40.679019 5.238801 -25.600921 67.655935 -22.129753 0.599459 -2.870554 -2.912909 0.058756 -0.158329 0.019395 13.629480 -40.269860 2.255489 24.794857 61.634257 24.738308 -15.367252 -14.580447 0.714079 -0.064710 0.285983 0.011282
-257.289315 60.546615 -79.369842 155.085368 -28.697992 3.291482 4.237471 17.445510 1.369692 0.437895 1.901991 0.111999 0.716675 3.209147 0.164225 3.617713 15.240029 1.249241 4.836019 17.297557 -0.759922 5.306373 -7.557821 -1.902919 4.059972 2.877726 -2.609207 9.050792 -13.093544 -12.493535 26.990563 -65.026263 -11.288458 1.087194 -8.712388 -34.685566 -7.849000 0.577351 -5.146616 9.018219 -5.409774 5.485301 -28.323733 -72.367141 12.577328 -2.630554 -0.156133 15.237997 1.416557 -40.662184 5.266374 -25.567851 67.660034 -22.107872 0.583285 -2.873102 -2.922889 0.066008 -0.161238 0.023021 13.611003 -40.257330 2.266709 24.836897 61.612883 24.769342 -15.336373 -14.562237 0.705473 -0.052963 0.258156 0.018950
-257.286643 60.549284 -79.372790 155.111225 -28.738484 3.293547 4.223699 17.431583 1.377650 0.433133 1.930703 0.104153 0.715946 3.209480 0.178996 3.612444 15.262944 1.256643 4.796247 17.172018 -0.767222 5.289724 -7.582651 -1.917190 3.992098 3.038996 -2.732862 9.169825 -13.343375 -12.371592 25.383492 -65.012811 -9.757606 1.061406 -8.438547 -34.735520 -7.832523 0.628714 -5.089954 8.879576 -5.564521 5.398683 -27.413971 -72.229351 11.733611 -2.644970 -0.171747 15.208667 1.382268 -40.618070 5.267580 -25.548901 67.663858 -22.103164 0.574407 -2.875402 -2.927539 0.072039 -0.166767 0.025906 13.598933 -40.212158 2.268414 24.863688 61.587928 24.781369 -15.385529 -14.523990 0.683957 -0.026198 0.195539 0.033080
-257.281766 60.552203 -79.376449 155.116877 -28.792410 3.304602 4.226797 17.449029 1.376948 0.433172 1.934036 0.105799 0.703959 3.238248 0.175046 3.624300 15.250399 1.273727 4.763108 17.087909 -0.775084 5.261195 -7.635085 -1.919908 3.891789 3.292863 -2.878901 9.358067 -13.656291 -12.198624 22.432846 -65.062304 -6.974598 1.036374 -7.911222 -34.727154 -7.809737 0.727177 -4.998489 8.737214 -5.716497 5.266637 -26.318237 -72.118555 10.692088 -2.655090 -0.181759 15.149448 1.344327 -40.558446 5.287741 -25.535813 67.669241 -22.119584 0.567009 -2.889222 -2.934289 0.078630 -0.164906 0.030931 13.594311 -40.143202 2.294261 24.828442 61.577131 24.730080 -15.441440 -14.505610 0.650712 -0.027557 0.178889 0.057989
-257.274828 60.554748 -79.380347 155.144715 -28.859984 3.303522 4.206197 17.469682 1.381460 0.432507 1.935426 0.107609 0.713281 3.257652 0.172227 3.610585 15.237579 1.293389 4.734874 17.038022 -0.786795 5.232529 -7.690647 -1.925652 3.783566 3.631721 -3.051631 9.554103 -13.989583 -11.995143 17.490742 -65.144729 -2.315775 1.020242 -7.045186 -34.579773 -7.776628 0.876690 -4.896052 8.588158 -5.882437 5.086359 -25.028386 -72.025893 9.448105 -2.655916 -0.186801 15.059069 1.277121 -40.484294 5.319780 -25.524453 67.675534 -22.141982 0.548367 -2.907329 -2.946976 0.093404 -0.163206 0.039287 13.562678 -40.073094 2.310886 24.876673 61.565931 24.746985 -15.437847 -14.485408 0.653397 -0.045478 0.163960 0.051047
-257.267154 60.555384 -79.382729 155.158689 -28.925743 3.308946 4.193443 17.479703 1.389580 0.431311 1.934998 0.109788 0.714171 3.270752 0.169632 3.602016 15.221967 1.315974 4.706525 17.006777 -0.802728 5.204955 -7.725774 -1.935917 3.679545 4.025162 -3.233399 9.730174 -14.320854 -11.755459 10.125755 -65.007223 4.625515 1.007271 -5.844251 -34.284558 -7.744108 1.072404 -4.796108 8.429346 -6.080382 4.859432 -23.579112 -71.945188 8.048146 -2.644107 -0.204830 14.949459 1.208767 -40.412134 5.368610 -25.527291 67.669090 -22.194303 0.531185 -2.915860 -2.955921 0.113526 -0.161909 0.048570 13.542502 -40.004496 2.330588 24.897363 61.569096 24.737912 -15.429875 -14.485821 0.663506 -0.051657 0.163212 0.050550
-257.261755 60.554260 -79.385519 155.139506 -28.993130 3.348326 4.202954 17.487153 1.381758 0.430033 1.933420 0.112141 0.711368 3.276941 0.171568 3.594884 15.247460 1.317349 4.681886 16.951509 -0.805457 5.200948 -7.693561 -1.946872 3.585741 4.391850 -3.386643 9.826301 -14.619277 -11.480744 0.669230 -64.268833 13.609921 0.927513 -4.449308 -33.906401 -7.714912 1.257383 -4.681367 8.275718 -6.299853 4.602442 -22.053186 -71.904602 6.564670 -2.602788 -0.264703 14.858077 1.187041 -40.347073 5.392578 -25.554577 67.670009 -22.269681 0.484247 -2.888506 -2.976725 0.164847 -0.197563 0.072100 13.560651 -39.925434 2.341317 24.855141 61.589742 24.670956 -15.399021 -14.547971 0.672915 -0.088255 0.218261 0.041941
